<?xml version="1.0" encoding="utf-8"?>
<!-- Generator: Adobe Illustrator 27.5.0, SVG Export Plug-In . SVG Version: 6.00 Build 0)  -->
<svg version="1.1" id="Layer_1" xmlns="http://www.w3.org/2000/svg" xmlns:xlink="http://www.w3.org/1999/xlink" x="0px" y="0px"
	 viewBox="0 0 100 125" style="enable-background:new 0 0 100 125;" xml:space="preserve">
<g>
	<path d="M39,53.2c-1-2.3-3.1-4-5.5-4.6V28c0-1.1-0.9-2-2-2c-1.1,0-2,0.9-2,2v20.6c-0.5,0.1-0.9,0.3-1.4,0.5
		c-4.1,1.9-6,6.8-4.1,10.9c1,2.3,3.1,4,5.5,4.6V72c0,1.1,0.9,2,2,2c1.1,0,2-0.9,2-2v-7.4c2.6-0.6,4.8-2.5,5.7-5.1
		C40,57.5,39.9,55.2,39,53.2z M35.5,58.1c-0.8,2.2-3.3,3.3-5.5,2.5c-2.2-0.8-3.3-3.3-2.5-5.5c0.4-1.1,1.2-1.9,2.2-2.4
		c0.5-0.3,1.1-0.4,1.7-0.4c1.7,0,3.2,1,3.9,2.5C35.8,55.9,35.9,57,35.5,58.1L35.5,58.1z"/>
	<path d="M76,53.2c-1-2.3-3.1-4-5.5-4.6V28c0-1.1-0.9-2-2-2s-2,0.9-2,2v20.6c-0.5,0.1-0.9,0.3-1.4,0.5c-4.1,1.9-6,6.8-4.1,10.9
		c1,2.3,3.1,4,5.5,4.6V72c0,1.1,0.9,2,2,2s2-0.9,2-2v-7.4c2.6-0.6,4.8-2.5,5.7-5.1C77,57.5,76.9,55.2,76,53.2z M72.5,58.1
		c-0.8,2.2-3.3,3.3-5.5,2.5c-2.2-0.8-3.3-3.3-2.5-5.5c0.4-1.1,1.2-1.9,2.2-2.4c0.5-0.3,1.1-0.4,1.7-0.4c1.7,0,3.2,1,3.9,2.5
		C72.8,55.9,72.9,57,72.5,58.1z"/>
	<path d="M52.9,36c-0.3-0.1-0.6-0.2-0.9-0.3V28c0-1.1-0.9-2-2-2s-2,0.9-2,2v7.8c-4.4,1.1-7.1,5.6-6,10c0.1,0.5,0.3,0.9,0.5,1.4
		c0.9,2,2.6,3.6,4.6,4.3c0.3,0.1,0.6,0.2,0.9,0.3V72c0,1.1,0.9,2,2,2s2-0.9,2-2V51.7c0.5-0.1,0.9-0.3,1.4-0.5
		c4.2-1.8,6-6.7,4.2-10.9C56.7,38.4,55,36.8,52.9,36z M54,45.2c-0.8,2.2-3.3,3.3-5.5,2.5c-1.1-0.4-1.9-1.2-2.4-2.2
		c-1-2.1,0-4.7,2.1-5.6c0.5-0.2,1.1-0.4,1.7-0.4c0.5,0,1,0.1,1.5,0.3c1,0.4,1.9,1.2,2.3,2.2l0,0C54.3,43,54.4,44.2,54,45.2z"/>
</g>
</svg>
